<?xml version="1.0" encoding="UTF-8"?>
<svg xmlns="http://www.w3.org/2000/svg" version="1.1" viewBox="0 0 180 40.82">
  <!-- Generator: Adobe Illustrator 29.1.0, SVG Export Plug-In . SVG Version: 2.1.0 Build 142)  -->
  <defs>
    <style>
      .st0 {
        fill: #fff;
      }
    </style>
  </defs>
  <g id="e">
    <g>
      <path class="st0" d="M47.8,17.21c-.72-.69-1.66-1.14-2.71-1.14-.97,0-1.65.4-1.65,1.06s.48.95,1.43,1.14l1.69.34c1.94.39,3.16,1.15,3.16,3,0,2.17-1.92,3.37-4.4,3.37s-4.08-1.29-4.73-2.19l1.62-1.39c.65.86,1.72,1.63,3.17,1.63,1.22,0,1.92-.48,1.92-1.25,0-.72-.62-.92-1.57-1.09l-1.35-.26c-1.91-.37-3.36-1.06-3.36-3.11,0-1.88,1.74-3.19,4.03-3.19,1.85,0,3.33.69,4.22,1.65l-1.48,1.42Z"/>
      <path class="st0" d="M56.4,21.97c-.15-.74-.34-1.71-.49-2.49h-.02c-.17.74-.32,1.72-.51,2.52l-.62,2.8h-2.8l-1.85-7.33h2.31l.59,3.17c.14.75.26,1.49.42,2.25h.02c.17-.72.31-1.4.52-2.29l.77-3.13h2.4l.79,3.16c.25.97.34,1.51.51,2.26h.02c.15-.74.25-1.25.45-2.31l.6-3.11h2.22l-1.94,7.33h-2.77l-.6-2.83Z"/>
      <path class="st0" d="M65.08,16.53h-2.26v-2.2h2.26v2.2ZM65.08,24.8h-2.26v-7.33h2.26v7.33Z"/>
      <path class="st0" d="M71.83,19.71c-.54-.49-1.26-.8-1.99-.8-.51,0-.95.17-.95.54s.34.49,1.09.65l1.15.25c1.19.25,2.26.72,2.26,2.12,0,1.71-1.49,2.52-3.23,2.52s-3.09-.74-3.76-1.65l1.42-1.14c.45.62,1.32,1.12,2.34,1.12.75,0,1.14-.25,1.14-.65s-.45-.49-.94-.59l-1.15-.23c-.74-.14-1.37-.39-1.82-.77-.4-.34-.63-.82-.63-1.43,0-1.74,1.68-2.37,3.12-2.37,1.37,0,2.46.51,3.2,1.22l-1.26,1.2Z"/>
      <path class="st0" d="M79.59,19.71c-.54-.49-1.26-.8-1.99-.8-.51,0-.95.17-.95.54s.34.49,1.09.65l1.15.25c1.19.25,2.26.72,2.26,2.12,0,1.71-1.49,2.52-3.23,2.52s-3.09-.74-3.76-1.65l1.42-1.14c.45.62,1.32,1.12,2.34,1.12.75,0,1.14-.25,1.14-.65s-.45-.49-.94-.59l-1.15-.23c-.74-.14-1.37-.39-1.82-.77-.4-.34-.63-.82-.63-1.43,0-1.74,1.68-2.37,3.12-2.37,1.37,0,2.46.51,3.2,1.22l-1.26,1.2Z"/>
      <path class="st0" d="M91.52,18.43c.83,1.37,1.54,2.68,1.54,2.68h.02s-.09-2.06-.09-3.28v-3.49h2.29v10.47h-2.34l-2.48-4.03c-.59-.97-1.59-2.82-1.59-2.82h-.02s.11,1.74.11,3.42v3.43h-2.31v-10.47h2.36l2.51,4.1Z"/>
      <path class="st0" d="M103.56,22.97c0,.46.06.62.38.62h.11v1.29c-.34.06-.68.09-1.05.09-.65,0-1.25-.12-1.4-.66h-.02c-.34.37-.88.68-2.06.68-1.62,0-2.65-.83-2.65-2.36,0-1.4,1.06-1.96,2.62-2.2l1.52-.25c.4-.06.46-.11.46-.34v-.12c0-.55-.31-.86-1.08-.86s-1.22.32-1.22,1.06l-2.08-.02c-.03-1.68,1.32-2.59,3.39-2.59,1.88,0,3.06.59,3.06,2.25v3.4ZM101.47,21.48c-.17.06-.31.14-1.09.29-.72.14-1.26.26-1.26.89s.45.86,1.09.86c.74,0,1.26-.34,1.26-1.11v-.94Z"/>
      <path class="st0" d="M109.97,24.83c-.31.06-.82.12-1.35.12-.88,0-1.8-.12-2.19-.63-.28-.37-.31-.77-.31-1.51v-3.82h-1.42v-1.52h1.42v-2.49l2.25-.45v2.94h1.6v1.52h-1.6v3.25c0,.42.05.62.19.75.15.17.43.23.85.23.26,0,.46-.02.57-.03v1.63Z"/>
      <path class="st0" d="M113.79,16.53h-2.26v-2.2h2.26v2.2ZM113.79,24.8h-2.26v-7.33h2.26v7.33Z"/>
      <path class="st0" d="M119.13,17.29c2.31,0,3.9,1.4,3.9,3.88s-1.59,3.82-3.9,3.82-3.88-1.34-3.88-3.82,1.57-3.88,3.88-3.88ZM119.13,23.28c1.03,0,1.62-.8,1.62-2.14s-.57-2.16-1.62-2.16-1.6.8-1.6,2.16.57,2.14,1.6,2.14Z"/>
      <path class="st0" d="M131.48,24.8h-2.25v-3.7c0-1.12-.05-1.91-1.15-1.91-.94,0-1.34.74-1.34,1.74v3.86h-2.25v-7.33h2.22v.91c.35-.6,1.15-1.09,2.2-1.09.85,0,1.49.23,1.92.71.46.52.65,1.03.65,2.65v4.16Z"/>
      <path class="st0" d="M139.63,22.97c0,.46.06.62.38.62h.11v1.29c-.34.06-.68.09-1.05.09-.65,0-1.25-.12-1.4-.66h-.02c-.34.37-.88.68-2.06.68-1.62,0-2.65-.83-2.65-2.36,0-1.4,1.06-1.96,2.62-2.2l1.52-.25c.4-.06.46-.11.46-.34v-.12c0-.55-.31-.86-1.08-.86s-1.22.32-1.22,1.06l-2.08-.02c-.03-1.68,1.32-2.59,3.39-2.59,1.88,0,3.06.59,3.06,2.25v3.4ZM137.54,21.48c-.17.06-.31.14-1.09.29-.72.14-1.26.26-1.26.89s.45.86,1.09.86c.74,0,1.26-.34,1.26-1.11v-.94Z"/>
      <path class="st0" d="M143.99,24.8h-2.25v-10.47h2.25v10.47Z"/>
      <path class="st0" d="M47.8,32.81c-.72-.69-1.66-1.14-2.71-1.14-.97,0-1.65.4-1.65,1.06s.48.95,1.43,1.14l1.69.34c1.94.39,3.16,1.15,3.16,3,0,2.17-1.92,3.37-4.4,3.37s-4.08-1.29-4.73-2.19l1.62-1.39c.65.86,1.72,1.63,3.17,1.63,1.22,0,1.92-.48,1.92-1.25,0-.72-.62-.92-1.57-1.09l-1.35-.26c-1.91-.37-3.36-1.06-3.36-3.11,0-1.88,1.74-3.19,4.03-3.19,1.85,0,3.33.69,4.22,1.65l-1.48,1.42Z"/>
      <path class="st0" d="M57.92,38.59c-.4,1.03-1.43,2-3.37,2-2.31,0-3.88-1.34-3.88-3.82s1.57-3.88,3.88-3.88c2.03,0,3.08,1.09,3.45,2.28l-1.94.66c-.22-.8-.72-1.25-1.51-1.25-1.05,0-1.6.8-1.6,2.16s.57,2.14,1.6,2.14c.72,0,1.23-.38,1.46-1.08l1.91.79Z"/>
      <path class="st0" d="M61.4,32.13h-2.26v-2.2h2.26v2.2ZM61.4,40.4h-2.26v-7.33h2.26v7.33Z"/>
      <path class="st0" d="M70.18,38.85c-.43.62-1.49,1.74-3.51,1.74-2.16,0-3.8-1.42-3.8-3.88,0-2.29,1.57-3.82,3.76-3.82,2.42,0,3.65,1.74,3.65,3.97,0,.15,0,.32-.02.46h-5.22c.08.8.66,1.49,1.77,1.49.99,0,1.57-.59,1.82-1.02l1.56,1.05ZM65.04,35.88h3.06c-.05-.85-.58-1.43-1.49-1.43s-1.54.66-1.57,1.43Z"/>
      <path class="st0" d="M78.77,40.4h-2.25v-3.69c0-1.12-.05-1.91-1.15-1.91-.94,0-1.34.74-1.34,1.74v3.86h-2.25v-7.33h2.22v.91c.35-.6,1.15-1.09,2.2-1.09.85,0,1.49.23,1.92.71.46.52.65,1.03.65,2.65v4.16Z"/>
      <path class="st0" d="M87.43,38.59c-.4,1.03-1.43,2-3.37,2-2.31,0-3.88-1.34-3.88-3.82s1.57-3.88,3.88-3.88c2.03,0,3.08,1.09,3.45,2.28l-1.94.66c-.22-.8-.72-1.25-1.51-1.25-1.05,0-1.6.8-1.6,2.16s.57,2.14,1.6,2.14c.72,0,1.23-.38,1.46-1.08l1.91.79Z"/>
      <path class="st0" d="M95.45,38.85c-.43.62-1.49,1.74-3.51,1.74-2.16,0-3.8-1.42-3.8-3.88,0-2.29,1.57-3.82,3.76-3.82,2.42,0,3.65,1.74,3.65,3.97,0,.15,0,.32-.02.46h-5.22c.08.8.66,1.49,1.77,1.49.99,0,1.57-.59,1.82-1.02l1.56,1.05ZM90.31,35.88h3.06c-.05-.85-.58-1.43-1.49-1.43s-1.54.66-1.57,1.43Z"/>
      <path class="st0" d="M103.38,31.98v2.06h4.26v2.08h-4.26v4.28h-2.32v-10.47h6.79v2.05h-4.46Z"/>
      <path class="st0" d="M112.2,32.89c2.31,0,3.9,1.4,3.9,3.88s-1.59,3.82-3.9,3.82-3.88-1.34-3.88-3.82,1.57-3.88,3.88-3.88ZM112.2,38.88c1.03,0,1.62-.8,1.62-2.14s-.57-2.16-1.62-2.16-1.6.8-1.6,2.16.57,2.14,1.6,2.14Z"/>
      <path class="st0" d="M117.47,33.07h2.25v3.7c0,1.12.02,1.91,1.12,1.91.91,0,1.31-.74,1.31-1.74v-3.86h2.25v7.33h-2.22v-.91c-.35.6-1.14,1.09-2.17,1.09-.85,0-1.46-.23-1.89-.71-.46-.52-.65-1.03-.65-2.65v-4.16Z"/>
      <path class="st0" d="M133.44,40.4h-2.25v-3.69c0-1.12-.05-1.91-1.16-1.91-.94,0-1.34.74-1.34,1.74v3.86h-2.25v-7.33h2.22v.91c.35-.6,1.16-1.09,2.2-1.09.85,0,1.49.23,1.92.71.46.52.65,1.03.65,2.65v4.16Z"/>
      <path class="st0" d="M140.4,33.74v-3.8h2.25v10.47h-2.25v-.68c-.35.4-1.14.86-2.15.86-2.08,0-3.4-1.54-3.4-3.85s1.37-3.85,3.42-3.85c1.06,0,1.77.4,2.14.85ZM138.78,34.6c-1.05,0-1.66.83-1.66,2.14s.57,2.16,1.66,2.16c1,0,1.68-.88,1.68-2.16s-.68-2.14-1.68-2.14Z"/>
      <path class="st0" d="M150.78,38.57c0,.46.06.62.38.62h.11v1.29c-.34.06-.68.09-1.05.09-.65,0-1.25-.12-1.4-.66h-.01c-.34.37-.88.68-2.06.68-1.62,0-2.65-.83-2.65-2.36,0-1.4,1.06-1.95,2.62-2.2l1.53-.25c.4-.06.46-.11.46-.34v-.12c0-.55-.31-.86-1.08-.86s-1.22.32-1.22,1.06l-2.08-.02c-.03-1.68,1.32-2.59,3.39-2.59,1.88,0,3.06.59,3.06,2.25v3.4ZM148.69,37.08c-.17.06-.31.14-1.09.29-.72.14-1.26.26-1.26.89s.45.86,1.09.86c.74,0,1.26-.34,1.26-1.11v-.94Z"/>
      <path class="st0" d="M157.11,40.43c-.31.06-.82.12-1.35.12-.88,0-1.8-.12-2.19-.63-.28-.37-.31-.77-.31-1.51v-3.82h-1.42v-1.52h1.42v-2.49l2.25-.45v2.94h1.6v1.52h-1.6v3.25c0,.42.05.62.19.75.15.17.43.23.85.23.26,0,.46-.02.57-.03v1.63Z"/>
      <path class="st0" d="M160.85,32.13h-2.26v-2.2h2.26v2.2ZM160.85,40.4h-2.26v-7.33h2.26v7.33Z"/>
      <path class="st0" d="M166.19,32.89c2.31,0,3.9,1.4,3.9,3.88s-1.59,3.82-3.9,3.82-3.88-1.34-3.88-3.82,1.57-3.88,3.88-3.88ZM166.19,38.88c1.03,0,1.62-.8,1.62-2.14s-.57-2.16-1.62-2.16-1.6.8-1.6,2.16.57,2.14,1.6,2.14Z"/>
      <path class="st0" d="M178.54,40.4h-2.25v-3.69c0-1.12-.05-1.91-1.16-1.91-.94,0-1.34.74-1.34,1.74v3.86h-2.25v-7.33h2.22v.91c.35-.6,1.16-1.09,2.2-1.09.85,0,1.49.23,1.92.71.46.52.65,1.03.65,2.65v4.16Z"/>
    </g>
  </g>
  <g id="Bildmarke">
    <path class="st0" d="M37.4.28c-1.6,0-2.91,1.21-3.09,2.76h-10.81c-.19-1.55-1.49-2.76-3.09-2.76-1.73,0-3.13,1.4-3.13,3.13,0,1.6,1.21,2.91,2.76,3.09h0v10.79c-.57.07-1.09.29-1.52.62-.07.05-.13.1-.19.16-.04.04-.08.08-.12.12-.48.48-.81,1.12-.89,1.84H6.51c-.19-1.55-1.49-2.76-3.09-2.76-1.73,0-3.13,1.4-3.13,3.13,0,1.6,1.21,2.91,2.76,3.09h0v10.81h0c-1.55.19-2.76,1.49-2.76,3.09,0,1.73,1.4,3.13,3.13,3.13s3.13-1.4,3.13-3.13c0-1.6-1.21-2.91-2.76-3.09h0v-10.81h0c1.43-.17,2.55-1.29,2.72-2.72h10.79c.18,1.5,1.41,2.67,2.93,2.75.06,0,.11,0,.17,0,0,0,.02,0,.02,0,.1,0,.2,0,.29-.02h0c.67-.07,1.29-.35,1.76-.78,0,0,.01-.01.02-.02.02-.02.04-.03.05-.05.02-.02.04-.04.06-.05,0,0,.01-.01.02-.02.03-.03.06-.06.08-.09,0,0,0-.01.01-.02.5-.55.8-1.29.8-2.09,0-1.6-1.2-2.92-2.76-3.11V6.51h0c1.43-.17,2.55-1.29,2.72-2.72h10.81c.19,1.55,1.49,2.76,3.09,2.76,1.73,0,3.13-1.4,3.13-3.13s-1.4-3.13-3.13-3.13Z"/>
  </g>
</svg>